<svg width="549" height="188" viewBox="0 0 549 188" fill="none" xmlns="http://www.w3.org/2000/svg">
<path fill-rule="evenodd" clip-rule="evenodd" d="M0.642822 43.181C0.642822 37.2891 1.4555 31.8035 3.08087 26.9274C4.70623 22.2545 6.94111 18.1911 9.58233 14.9403C12.2235 11.8928 15.4743 9.04839 19.3345 7.01669C22.9916 4.78181 26.8518 3.35962 30.9152 2.34376C34.9786 1.32791 39.2452 0.92157 43.715 0.92157C49.8101 0.92157 55.2957 1.93742 60.375 3.96913C65.4542 6.00083 69.5176 8.84522 72.7684 12.5023C76.0191 16.1594 78.6603 20.4259 80.2857 25.302C82.1142 30.1781 82.9269 35.4606 82.9269 41.1493C82.9269 45.0096 82.3174 48.6666 81.3015 52.3237C80.2857 55.9808 78.6603 59.2315 76.6286 61.8727H78.6603H80.692C83.7396 61.8727 85.1618 62.8886 85.1618 65.1235V83.0025C85.1618 83.612 84.9586 84.0183 84.5523 84.2215C84.1459 84.6278 83.7396 84.831 82.9269 85.0342C80.0825 84.6278 75.2064 84.2215 68.2986 84.2215C64.6415 84.2215 59.7654 84.6278 53.6703 85.2373C47.5752 85.8469 42.9023 86.2532 39.8547 86.2532C25.6328 86.2532 15.2711 80.7676 8.3633 69.7964C5.51892 66.952 3.48721 63.0918 2.06502 58.0125C0.642822 52.9332 0.642822 48.0571 0.642822 43.181ZM31.1184 44.1969V47.854C31.1184 48.8698 31.1184 50.0888 31.3216 51.7142C31.5247 53.3396 31.7279 54.7618 31.9311 55.7776C32.1343 56.7935 32.5406 58.2157 32.9469 59.4347C33.3533 60.6537 33.9628 61.8727 34.7755 62.6854C35.385 63.4981 36.4008 64.1076 37.4167 64.7171C38.4325 65.3266 39.6516 65.5298 41.0738 65.5298V64.3108C41.0738 64.1076 41.2769 64.1076 41.6833 64.1076C41.8864 64.1076 42.0896 64.1076 42.496 64.3108C42.9023 64.3108 43.3086 64.5139 43.3086 64.5139C44.7308 64.5139 45.9499 64.1076 47.1689 63.2949C48.1847 62.4822 48.9974 61.4664 49.6069 60.0442C50.2164 58.622 50.6228 57.1998 51.0291 55.7777L51.0291 55.7776C51.4355 54.3554 51.6386 52.5269 51.8418 50.6984C52.045 48.8699 52.045 47.2445 52.045 46.0255V46.0254V42.1652L51.8418 40.1335C51.8418 38.5081 51.8418 37.0859 51.6386 35.8669C51.6386 34.8028 51.4838 33.5838 51.3093 32.21L51.3093 32.2099V32.2099L51.3087 32.205C51.2835 32.0067 51.2579 31.8051 51.2323 31.6003C51.0291 29.975 50.6228 28.756 50.2164 27.5369L50.2164 27.5369C49.8101 26.3179 49.2006 25.302 48.3879 24.2862C47.7784 23.2703 46.7625 22.4576 45.7467 22.0513C44.7308 21.2386 43.3086 21.0355 41.8864 21.0355C40.4642 21.0355 39.0421 21.4418 37.823 22.0513C36.604 22.6608 35.5882 23.6767 34.9786 25.0989C34.166 26.3179 33.5564 27.7401 33.1501 29.1623C32.5406 30.5845 32.1343 32.413 31.9311 34.2415C31.7279 36.07 31.5248 37.6954 31.3216 39.3207L31.3216 39.3208C31.3216 40.1335 31.2708 40.9462 31.22 41.7588L31.22 41.7589C31.1692 42.5716 31.1184 43.3842 31.1184 44.1969ZM100.4 109.008C100.4 108.602 100.603 108.196 101.009 107.992L101.039 107.977L101.064 107.965C101.082 107.955 101.101 107.945 101.12 107.935C101.15 107.919 101.181 107.903 101.212 107.886C101.609 107.673 102.151 107.383 102.838 107.383C103.244 107.281 103.65 107.231 104.057 107.18C104.463 107.129 104.869 107.078 105.276 106.977C106.088 106.773 107.104 106.773 108.323 106.773H111.168H113.809H115.637H121.529H121.529C122.748 106.773 124.374 106.773 126.405 106.57C127.596 106.57 128.646 106.501 129.517 106.443C130.132 106.402 130.658 106.367 131.078 106.367C147.738 106.367 159.725 109.211 167.039 115.103L168.868 116.729L168.868 116.729L168.868 116.729C169.478 117.338 170.087 117.948 170.9 118.964C171.712 119.776 172.525 121.199 173.541 123.027C174.557 124.856 175.573 126.887 176.385 128.919C177.198 130.951 178.011 133.592 178.62 136.639C179.23 139.687 179.433 142.938 179.433 146.189C179.433 151.268 178.823 156.144 177.401 160.614C175.979 165.083 174.15 168.944 171.712 172.194C169.274 175.445 166.43 178.289 163.179 180.727C159.928 183.166 156.271 184.791 152.411 186.01C148.754 187.229 144.894 187.838 140.83 187.838H139.205H139.205C137.783 187.838 135.345 187.838 132.5 187.635C130.69 187.635 129.166 187.564 127.929 187.505C127.084 187.466 126.373 187.432 125.796 187.432C117.06 187.432 108.933 187.635 101.822 187.838C101.009 186.213 100.603 184.588 100.603 183.166V109.008H100.4ZM131.485 169.553C133.516 169.553 135.548 169.35 137.173 168.944C138.799 168.537 140.221 167.928 141.44 167.115C142.659 166.302 143.675 165.287 144.488 164.068C145.3 162.848 146.113 161.629 146.519 160.41C146.926 159.191 147.332 157.769 147.738 156.144L147.739 156.141C147.942 154.517 148.145 152.892 148.348 151.471C148.551 150.049 148.551 148.423 148.551 146.595V143.141C148.551 136.639 147.332 131.967 144.691 128.919C142.049 125.871 137.58 124.246 131.281 124.043C131.22 124.166 131.159 124.307 131.091 124.462L131.091 124.462C130.937 124.818 130.752 125.243 130.469 125.668C130.185 126.093 130.001 126.518 129.846 126.874L129.846 126.875C129.779 127.029 129.718 127.171 129.656 127.294V129.732V133.795C129.047 157.363 129.656 169.147 131.485 169.553ZM185.122 118.151C185.122 116.119 185.122 114.9 185.325 114.494C185.731 114.088 186.138 113.681 186.95 113.681H188.169C188.779 113.681 189.185 113.681 189.388 113.884H192.029H192.03C195.484 113.884 200.969 113.884 208.08 113.681C215.191 113.478 220.677 113.478 224.334 113.478H238.352C239.165 113.681 239.775 114.088 239.775 114.9V132.576C239.775 132.779 239.775 132.982 239.571 133.186C239.571 133.287 239.521 133.338 239.47 133.389C239.419 133.44 239.368 133.49 239.368 133.592L238.962 133.998C238.759 134.201 238.556 134.405 238.352 134.405H213.972V140.906H216.207H216.207C218.239 140.906 221.286 140.906 225.553 140.703C229.819 140.5 232.867 140.5 235.102 140.5C236.118 140.5 236.727 140.703 237.133 141.109C237.54 141.516 237.743 142.125 237.743 142.735C237.743 142.938 237.743 143.141 237.54 143.547C237.54 143.954 237.337 144.36 237.337 144.36V146.392V147.204V148.423V149.846C237.337 150.658 237.337 151.471 237.54 152.08C237.54 152.516 237.598 152.893 237.652 153.243V153.243C237.699 153.546 237.743 153.829 237.743 154.112V155.331C237.702 155.414 237.66 155.488 237.621 155.556C237.603 155.585 237.586 155.614 237.569 155.641C237.553 155.668 237.537 155.694 237.521 155.719C237.414 155.893 237.337 156.018 237.337 156.144C237.25 156.23 237.201 156.28 237.141 156.308C237.06 156.347 236.961 156.347 236.727 156.347V156.144C235.508 156.144 233.273 156.144 230.022 156.347C226.772 156.55 224.334 156.55 222.505 156.55H213.972V163.255H215.191H216.41C218.035 163.255 220.27 163.255 223.521 163.052C226.568 162.849 228.803 162.849 230.226 162.849H236.93C238.759 162.849 239.978 163.052 240.384 163.458C240.587 163.661 240.79 163.864 240.79 164.068V180.931C240.79 181.743 240.587 182.15 240.384 182.556C240.181 182.962 239.571 183.166 238.759 183.166H186.747L185.122 181.743V118.151ZM247.698 149.033L248.714 184.181H273.907C275.329 184.181 276.345 183.978 276.955 183.775C277.564 183.572 277.971 182.962 278.174 182.353C277.971 177.68 277.767 170.569 277.767 161.426C277.971 161.223 278.174 161.223 278.377 161.223H282.643C284.066 161.223 285.488 161.02 286.91 160.817L286.91 160.817H288.535C294.631 160.41 299.913 159.191 304.18 156.957C307.633 154.112 310.275 151.065 312.103 147.814C313.932 144.766 314.744 140.906 314.744 136.843C314.744 133.795 314.338 130.951 313.322 128.31C312.306 125.668 311.087 123.637 309.462 121.808C307.837 119.98 306.008 118.557 303.976 117.338C301.945 116.119 299.913 115.307 297.678 114.697C295.443 114.088 293.412 113.884 291.177 113.884H253.387C252.574 114.088 251.762 114.088 250.949 114.088C250.136 114.088 249.527 114.088 249.12 114.291C248.714 114.494 248.511 115.103 248.511 115.713C248.511 116.986 248.464 118.307 248.415 119.675V119.675V119.676V119.676V119.676V119.677V119.677V119.678V119.678V119.679V119.679C248.362 121.147 248.308 122.669 248.308 124.246C248.308 125.853 248.251 127.404 248.198 128.868L248.198 128.869V128.87V128.87V128.871V128.871V128.871V128.872V128.872V128.872V128.873V128.873V128.874V128.874V128.875V128.875V128.876V128.876V128.876V128.876C248.15 130.186 248.105 131.426 248.105 132.576C248.105 133.727 248.059 134.969 248.011 136.28C247.958 137.745 247.901 139.297 247.901 140.906C247.698 143.954 247.698 146.595 247.698 149.033ZM274.923 144.97V143.954C274.923 142.22 275.071 140.043 275.241 137.548L275.241 137.542L275.241 137.542L275.242 137.524L275.246 137.471L275.287 136.859C275.301 136.653 275.315 136.444 275.329 136.233V130.748C275.533 130.748 275.736 130.544 275.939 130.341L276.345 129.935C277.155 129.935 277.899 130.001 278.54 130.058L278.541 130.058C279.025 130.1 279.449 130.138 279.799 130.138C280.815 130.138 281.831 130.138 282.847 130.544L282.847 130.545L282.847 130.545C283.863 130.951 284.879 131.357 285.488 131.763C286.097 132.373 286.707 132.982 287.113 133.998C287.52 135.014 287.723 136.03 287.723 137.452C287.723 140.297 286.707 142.531 284.472 143.954C282.237 145.376 279.596 145.985 276.548 145.985C276.377 145.985 276.241 145.949 276.142 145.907V145.782C276.142 145.782 275.939 145.579 275.533 145.376C275.126 145.173 274.923 144.97 274.923 144.97ZM316.979 148.22L316.776 147.001C317.386 141.312 317.995 137.249 318.605 135.014C320.027 129.732 322.465 125.262 325.919 121.808L327.138 120.589C328.763 118.557 331.404 116.932 334.858 115.51H336.89C340.344 114.088 346.033 112.665 353.956 111.446C355.988 111.446 358.02 111.65 360.051 111.853C361.857 112.017 363.663 112.446 365.682 112.926C366.163 113.041 366.655 113.158 367.162 113.275C369.804 113.884 372.242 115.103 374.68 116.526C377.118 117.948 379.15 119.776 380.775 121.808V123.23C386.464 130.341 389.511 138.468 389.511 147.408C389.511 157.566 387.276 165.693 382.603 171.991L380.572 174.632C378.946 176.664 376.915 178.289 374.477 179.712C372.039 181.134 369.6 182.15 366.756 182.962C364.317 183.713 361.878 184.117 359.598 184.494C359.41 184.526 359.222 184.557 359.036 184.588C356.598 184.994 354.16 184.994 351.721 184.994C348.064 184.994 344.611 184.588 341.36 183.775C338.109 182.962 335.062 181.54 332.217 179.712C329.373 177.883 326.732 175.648 324.7 173.007C322.465 170.366 320.84 167.115 319.417 163.255C317.995 159.395 317.182 155.331 316.979 150.658V148.22ZM346.033 148.627C346.033 161.02 348.471 167.115 353.144 167.115C354.363 167.115 355.582 166.912 356.598 166.302C357.613 165.896 358.426 165.083 359.036 164.068C359.645 163.052 360.052 162.036 360.458 161.02C360.864 160.004 361.067 158.582 361.271 157.16C361.366 156.493 361.416 155.781 361.464 155.109C361.518 154.347 361.569 153.636 361.677 153.096V148.83V147.001C361.677 145.173 361.474 143.344 361.271 141.719C361.067 140.093 360.661 138.265 360.255 136.639C359.848 135.014 359.036 133.592 357.817 132.576C356.801 131.56 355.379 130.951 353.956 130.951C348.674 130.951 346.033 136.233 346.033 146.595V148.627ZM391.137 114.088V132.982C391.137 133.592 391.543 133.998 392.152 134.608C392.292 134.643 392.425 134.678 392.555 134.711C393.18 134.875 393.714 135.014 394.387 135.014H407.593V136.843V138.671V139.89V141.109V142.328C407.593 145.329 407.471 149.19 407.32 153.911C407.277 155.262 407.232 156.684 407.187 158.176C407.103 160.946 407.019 163.301 406.95 165.253C406.851 168.025 406.781 169.986 406.781 171.178V182.556L408.812 183.978H411.86H415.314H418.768H423.034H424.253H425.472C425.472 184.181 427.707 184.385 432.177 184.385H435.631H436.037H436.444C436.444 184.181 436.647 184.181 436.647 184.181C436.647 183.978 436.85 183.978 436.85 183.978C437.053 183.978 437.053 183.775 437.053 183.775L437.256 183.572C437.358 183.572 437.409 183.572 437.434 183.546C437.459 183.521 437.459 183.47 437.459 183.369V183.166V182.962V182.759V134.201H452.291C453.104 134.201 453.713 133.795 453.713 132.982V116.119C453.713 115.51 453.713 115.103 453.51 114.697C453.307 114.494 453.104 114.291 452.494 114.088H391.137ZM89.2252 16.3625C89.2252 19.8164 89.2252 21.8481 89.4284 22.4577H88.8189V24.083C88.8189 24.3486 88.8575 24.6528 88.901 24.9955L88.901 24.996L88.9011 24.9965L88.9012 24.9972L88.9012 24.9973C88.9575 25.4407 89.022 25.9486 89.022 26.5211C89.2252 27.74 89.2252 28.3496 89.2252 28.959V28.9591V29.7718V30.5845V32.0067C89.2252 33.2013 89.1764 34.4447 89.1267 35.713C89.0749 37.0331 89.022 38.3801 89.022 39.7271V48.4635V55.9808C89.2252 59.0284 89.6316 62.0759 90.6474 64.7171C91.6633 67.3583 92.8823 69.5932 94.3045 71.4218C95.7267 73.2503 97.352 74.8756 99.3837 76.2978C101.212 77.5169 103.244 78.5327 105.276 79.3454C105.411 79.3822 105.545 79.4191 105.679 79.4558L105.993 79.5423C107.952 80.0818 109.784 80.5864 111.777 80.7676H114.215C117.872 81.1739 120.107 81.3771 120.92 81.3771V81.1739C121.936 81.1739 122.545 80.9708 122.545 80.5644H124.171C124.78 80.7676 125.39 80.9708 126.405 80.9708C129.453 80.9708 132.501 80.7676 135.345 80.3613C138.189 79.9549 140.831 79.1422 143.675 78.1264C146.519 77.1105 148.957 75.4852 150.989 73.6566C153.224 71.6249 154.646 69.3901 155.865 66.7488V66.5457C156.881 64.3108 157.287 60.8569 157.287 55.9808V51.9174C157.084 51.5111 157.084 50.6985 157.084 49.4796V49.4793V48.0571V46.4318V43.181C157.084 39.3208 157.287 30.7876 157.694 17.5816V9.45474H128.437C127.421 9.86108 127.015 10.4706 127.015 11.4864C127.218 14.1276 127.218 18.5971 127.218 24.6918V24.6925C127.218 24.7229 127.214 24.9215 127.205 25.2891C127.157 27.3784 126.985 34.9261 126.812 48.0571V55.7776C126.812 57.1998 126.609 58.4188 125.796 59.4347C124.983 60.4505 124.171 60.8569 122.952 60.8569C120.31 60.8569 118.888 58.4188 118.888 53.9491V9.65791H90.2411C89.6316 10.2674 89.2252 12.5023 89.2252 16.3625ZM188.982 69.5932C188.779 70.4059 188.576 71.4217 188.372 72.8439C188.169 74.063 187.966 75.282 187.763 75.8915C187.56 76.7042 187.153 77.5168 186.747 78.3295C186.341 79.1422 185.528 79.7517 184.715 80.1581C183.699 80.5644 182.48 80.7676 181.058 80.7676H158.303V78.939C158.66 77.828 159.056 76.6085 159.488 75.2791L159.492 75.2667C161.27 69.79 163.653 62.4484 166.43 53.1364C167.577 49.5043 168.624 46.152 169.584 43.0794C171.684 36.3554 173.365 30.9714 174.76 26.9274V27.1306C175.979 23.6767 177.808 18.3942 180.042 11.0801C180.042 11.0801 180.042 10.8769 180.246 10.8769C180.4 10.6449 180.525 10.4423 180.632 10.2692L180.633 10.2681L180.633 10.2679L180.634 10.2674C180.807 9.98662 180.933 9.78345 181.058 9.65789L209.502 9.86106C214.378 9.86106 217.019 10.2674 217.426 11.0801V12.5023C217.426 12.9086 217.832 13.7213 218.645 14.9403C220.221 19.669 221.586 23.8477 222.758 27.4376L222.758 27.4386L222.76 27.4449C224.156 31.7179 225.279 35.1565 226.162 37.6954V38.3049C226.18 38.3958 226.198 38.4883 226.217 38.5823C226.405 39.5389 226.623 40.6489 227.178 41.7588C227.584 42.9779 228.194 44.4001 229.006 46.0254C229.819 47.6508 230.225 48.6666 230.429 49.4793L232.46 56.9966C233.679 61.06 235.508 66.5456 237.946 73.2503V74.063C238.03 74.2312 238.114 74.4691 238.213 74.7478L238.213 74.7482C238.352 75.1425 238.521 75.6186 238.759 76.0947C238.997 76.5706 239.165 76.9768 239.304 77.3134L239.304 77.3137C239.403 77.5517 239.487 77.7549 239.571 77.9232C239.571 78.939 239.368 79.5486 238.962 79.7517C238.555 79.9549 237.743 80.1581 236.524 80.1581H212.143C211.757 80.1581 211.452 80.0764 211.229 80.0166C211.1 79.9821 210.999 79.9549 210.924 79.9549C210.84 79.9549 210.756 79.92 210.657 79.8792C210.518 79.8214 210.35 79.7517 210.112 79.7517C209.956 79.6741 209.831 79.6262 209.724 79.5852C209.55 79.5189 209.424 79.4709 209.299 79.3454C209.096 79.1422 209.096 78.939 209.096 78.7359L207.064 70.8122C206.986 70.5795 206.939 70.3764 206.898 70.2029L206.898 70.2027C206.831 69.9219 206.783 69.7188 206.658 69.5932C206.584 69.5932 206.482 69.5661 206.354 69.5317L206.353 69.5316L206.353 69.5315L206.353 69.5315C206.13 69.4717 205.825 69.39 205.439 69.39H188.982V69.5932ZM202.861 42.839L202.861 42.8384C202.664 41.968 202.426 40.9173 202.188 39.7271C201.782 37.4923 201.375 35.6637 200.969 34.0383C200.563 32.413 200.156 30.7876 199.75 29.5686V27.1306C199.547 26.3179 198.937 25.9115 198.328 25.5052V25.302C197.515 25.5052 196.702 27.7401 195.89 32.413V34.851C195.89 35.0542 195.687 35.2574 195.483 35.4605L195.077 35.8669C194.516 38.2039 194.041 40.3688 193.613 42.3221L193.612 42.3242L193.612 42.3257C193.11 44.6163 192.671 46.6158 192.233 48.2603C192.233 48.6666 192.233 49.2761 192.029 50.0888C191.623 51.1047 191.623 51.7142 191.623 51.9174H204.626C204.626 50.9015 204.22 49.2761 203.61 47.0413V45.8222C203.61 45.7207 203.559 45.6191 203.509 45.5175C203.458 45.4159 203.407 45.3143 203.407 45.2127C203.204 44.8064 203.204 44.6032 203.204 44.4C203.12 43.9807 203.001 43.4576 202.863 42.8449L202.861 42.839ZM254.2 10.0642H244.447V79.9549H271.469H272.079L272.079 79.9545L272.079 79.9543L272.079 79.9542C272.196 79.8378 272.245 79.7884 272.305 79.7673C272.349 79.7517 272.399 79.7517 272.485 79.7517C272.688 79.7517 272.891 79.5485 272.891 79.5485L273.094 79.3454C273.196 79.3454 273.247 79.3454 273.272 79.32C273.298 79.2946 273.298 79.2439 273.298 79.1426V79.1422C273.501 78.939 273.501 78.7359 273.501 78.7359V78.3295V77.9232V77.5168V77.1105V55.9808H275.939C276.752 55.9808 277.361 55.9808 277.971 56.1839C278.377 56.3871 278.783 56.7934 279.19 57.1998L279.799 58.4188C279.799 58.5444 279.877 58.8251 279.984 59.2132C280.05 59.453 280.128 59.7338 280.205 60.0442L281.424 69.39C281.628 71.8281 282.237 74.0629 282.847 76.0947C283.456 78.1264 284.269 79.1422 284.878 79.3454H288.535C289.633 79.3454 290.51 79.4185 291.212 79.477C291.681 79.516 292.071 79.5485 292.396 79.5485H301.945H311.494C312.306 79.5485 312.713 78.939 312.713 77.72C312.713 75.8915 312.103 72.8439 311.087 69.1868C310.072 65.5298 309.462 62.8886 309.259 61.4664C309.259 61.2632 309.259 60.8569 309.056 60.4505C308.852 58.2156 308.649 56.9966 308.446 56.3871C308.372 56.164 308.297 55.8865 308.203 55.5346C308.04 54.9251 307.817 54.0925 307.43 52.9332C307.024 51.3078 306.414 50.0888 305.805 49.2761C305.195 48.4635 304.383 47.6508 303.367 46.6349C302.351 45.6191 300.929 44.8064 299.507 44.1969C303.367 42.3683 306.008 39.9303 307.837 37.2891C309.665 34.6479 310.478 31.3971 310.478 27.5369C310.478 24.8957 309.868 22.2545 308.852 20.2228C307.837 18.191 306.414 16.3625 304.789 15.1435C303.232 13.781 301.302 12.9779 298.999 12.0197L298.694 11.8928C296.256 10.8769 293.818 10.4706 291.38 10.0642C288.942 9.86106 286.301 9.65789 283.456 9.65789C280.205 9.65789 275.329 9.65789 268.625 9.86106C262.123 10.0642 257.247 10.0642 254.2 10.0642ZM274.72 38.3049L274.314 37.8986V33.2257C274.11 31.1943 274.11 29.5691 274.11 28.5532V28.5527V26.521C274.11 26.1147 274.517 25.9115 275.126 25.7084C282.237 25.7084 285.691 27.5369 285.691 31.194C285.691 32.6162 285.285 34.0383 284.675 35.0542C284.066 36.0701 283.05 36.8827 282.034 37.4922C281.018 38.1018 280.002 38.5081 278.783 38.7113L278.622 38.7383C278.5 38.7589 278.38 38.7794 278.262 38.7996L278.262 38.7996C277.268 38.9694 276.4 39.1176 275.533 39.1176C275.329 39.1176 275.329 39.1176 275.126 38.9144C275.025 38.8129 274.974 38.7113 274.923 38.6097C274.872 38.5081 274.821 38.4065 274.72 38.3049ZM313.525 29.3654V10.2674H374.883C375.492 10.4706 375.696 10.6737 375.899 10.8769C376.102 11.2832 376.102 11.6896 376.102 12.2991V29.3654C376.102 30.1781 375.492 30.5844 374.68 30.5844H359.645V79.1422V79.3454V79.5485V79.7517C359.645 79.8533 359.645 79.9041 359.62 79.9295C359.594 79.9549 359.544 79.9549 359.442 79.9549L359.239 80.1581C359.239 80.1581 359.239 80.3612 359.036 80.3612C359.036 80.3612 358.832 80.3612 358.832 80.5644C358.832 80.5644 358.629 80.5644 358.629 80.7676H358.223H357.817H354.363C349.893 80.7676 347.658 80.5644 347.658 80.3612H346.439H345.22H340.953H337.5H334.046H330.998L328.966 78.939V67.5615C328.966 66.3695 329.036 64.4082 329.135 61.6366L329.135 61.6343C329.205 59.6823 329.289 57.3285 329.373 54.5586C329.418 53.0659 329.463 51.6437 329.506 50.292L329.506 50.2895C329.656 45.571 329.779 41.7116 329.779 38.7113V37.4922V36.2732V35.0542V33.2257V31.3971H316.573C315.9 31.3971 315.366 31.2577 314.741 31.0943C314.611 31.0605 314.478 31.0256 314.338 30.9908C314.253 30.8636 314.169 30.7452 314.087 30.632C313.78 30.2028 313.525 29.8477 313.525 29.3654ZM381.384 11.2833V80.5644H410.438C410.844 80.5644 411.25 80.3613 411.25 80.1581C411.25 80.0565 411.301 79.9042 411.377 79.6757L411.377 79.6755C411.454 79.4469 411.555 79.1422 411.657 78.7359V10.0642H383.213C383.111 10.0642 383.01 10.115 382.857 10.1912C382.705 10.2674 382.502 10.369 382.197 10.4706C381.791 10.6737 381.384 11.0801 381.384 11.2833ZM418.768 14.534V14.5331C418.768 12.5019 418.768 11.2832 418.971 10.8769C419.377 10.4706 419.784 10.0643 420.596 10.0643H421.815C422.425 10.0643 422.831 10.0643 423.034 10.2674H425.676C429.13 10.2674 434.615 10.2674 441.726 10.0643C448.837 9.86109 454.323 9.86109 457.98 9.86109H471.999C472.811 10.0643 473.421 10.4706 473.421 11.2833V28.9591C473.421 29.1623 473.421 29.3655 473.218 29.5686C473.218 29.6702 473.167 29.721 473.116 29.7718C473.065 29.8226 473.014 29.8734 473.014 29.975L472.608 30.3813C472.405 30.5845 472.202 30.7877 471.999 30.7877H447.618V37.2891H449.853C451.885 37.2891 454.932 37.2891 459.199 37.0859C463.465 36.8828 466.513 36.8828 468.748 36.8828C469.764 36.8828 470.373 37.0859 470.779 37.4923C471.186 37.8986 471.389 38.5081 471.389 39.1176C471.389 39.3208 471.389 39.524 471.186 39.9303C471.186 40.3367 470.983 40.743 470.983 40.743V42.7747V43.5874V44.8064V46.2286C470.983 47.0413 470.983 47.854 471.186 48.4635C471.186 48.8989 471.244 49.2759 471.298 49.6259L471.298 49.6263C471.345 49.9294 471.389 50.2123 471.389 50.4952V51.7142C471.311 51.8694 471.234 51.995 471.168 52.1022C471.06 52.2757 470.983 52.4013 470.983 52.5269C470.78 52.7301 470.779 52.7301 470.373 52.7301V52.5269C469.154 52.5269 466.919 52.5269 463.669 52.7301C460.418 52.9332 457.98 52.9332 456.151 52.9332H447.618V59.841H448.837H450.056C451.681 59.841 453.916 59.841 457.167 59.6379C460.215 59.4347 462.449 59.4347 463.872 59.4347H470.576C472.405 59.4347 473.624 59.6379 474.03 60.0442C474.233 60.2474 474.437 60.4506 474.437 60.6537V77.5169C474.437 78.3296 474.233 78.7359 474.03 79.1422C473.827 79.5486 473.218 79.7517 472.405 79.7517H420.19L418.565 78.3296V14.534H418.768ZM490.487 10.0642H480.735H480.125V79.9549H507.757H508.366C508.569 79.7517 508.569 79.7517 508.772 79.7517C508.976 79.7517 509.179 79.5485 509.179 79.5485L509.382 79.3454C509.585 79.3454 509.585 79.3454 509.585 79.1422C509.788 78.939 509.788 78.7359 509.788 78.7359V78.3295V77.9232V77.5168V77.1105V55.9808H512.226C513.039 55.9808 513.648 55.9808 514.258 56.1839C514.664 56.3871 515.071 56.7934 515.477 57.1998L516.086 58.4188C516.086 58.5444 516.164 58.8253 516.271 59.2135C516.338 59.4533 516.415 59.7339 516.493 60.0442L517.712 69.39C517.915 71.8281 518.525 74.0629 519.134 76.0947C519.744 78.1264 520.556 79.1422 521.166 79.3454H524.823C525.92 79.3454 526.798 79.4185 527.5 79.477C527.968 79.516 528.358 79.5485 528.683 79.5485H538.232H547.781C548.594 79.5485 549 78.939 549 77.72C549 75.8915 548.391 72.8439 547.375 69.1868C546.359 65.5298 545.749 62.8886 545.546 61.4664C545.546 61.2632 545.546 60.8569 545.343 60.4505C545.14 58.2156 544.937 56.9966 544.733 56.3871C544.659 56.164 544.585 55.8864 544.49 55.5344C544.327 54.9249 544.104 54.0923 543.718 52.9332C543.311 51.3078 542.702 50.0888 542.092 49.2761C541.483 48.4639 540.671 47.6516 539.656 46.6364L539.654 46.6349C538.638 45.6191 537.216 44.8064 535.794 44.1969C539.654 42.3683 542.295 39.9303 544.124 37.2891C545.953 34.6479 546.765 31.3971 546.765 27.5369C546.765 24.8957 546.156 22.2545 545.14 20.2228C544.124 18.191 542.702 16.3625 541.076 15.1435C539.519 13.781 537.589 12.9779 535.286 12.0196L534.981 11.8928C532.543 10.8769 530.105 10.4706 527.667 10.0642C525.229 9.86106 522.588 9.65789 519.744 9.65789C516.493 9.65789 511.617 9.65789 504.912 9.86106C498.411 10.0642 493.535 10.0642 490.487 10.0642ZM510.804 38.3049L510.398 37.8986V33.2257C510.195 31.194 510.195 29.5686 510.195 28.5527V26.521C510.195 26.1147 510.601 25.9115 511.21 25.7084C518.321 25.7084 521.775 27.5369 521.775 31.194C521.775 32.6162 521.369 34.0383 520.759 35.0542C520.15 36.0701 519.134 36.8827 518.118 37.4922C517.102 38.1018 516.086 38.5081 514.867 38.7113C514.69 38.7409 514.516 38.7706 514.346 38.7996C513.352 38.9694 512.484 39.1176 511.617 39.1176C511.414 39.1176 511.414 39.1176 511.21 38.9144C511.109 38.8129 511.058 38.7113 511.007 38.6097C510.956 38.5081 510.906 38.4065 510.804 38.3049Z" fill="white"/>
</svg>
